<svg xmlns="http://www.w3.org/2000/svg" viewBox="0 0 250.71 279.31"><defs><style>.cls-1{fill:#231f20;}.cls-2{fill:#415066;}.cls-3{fill:#088783;}.cls-4{fill:#835b44;}.cls-5{fill:#9c6c51;}.cls-6{fill:#00586c;}.cls-7{fill:#fff;}.cls-8{fill:#00a8a7;}.cls-9{fill:#f2f2f2;}.cls-10{fill:#a9e7fc;}.cls-11{fill:#006992;}.cls-12{fill:#e8b463;}.cls-13{fill:#ccc;}.cls-14{fill:#f7a592;}.cls-15{fill:#fcc3ab;}.cls-16{fill:#f2d6a9;}.cls-17{fill:#736357;opacity:0.29;}.cls-18{fill:#f15a24;}.cls-19{fill:#e6e6e6;}.cls-20{fill:#666;}.cls-21{fill:#603813;}.cls-22{fill:#754c24;}.cls-23{fill:#ed6e4f;}.cls-24{fill:#4d4d4d;}</style></defs><g id="Layer_2" data-name="Layer 2"><g id="Layer_1-2" data-name="Layer 1"><path class="cls-1" d="M52.71,46.53a30,30,0,0,1,3.58,5.29,30.5,30.5,0,0,1,3.08,8.69,30.36,30.36,0,0,1-6.83,5.63,31.49,31.49,0,0,1-16.2,4.44,17.48,17.48,0,0,1-8.53-1.88A17.88,17.88,0,0,1,20,60.17c.23-1.38.52-2.81.86-4.26a69.85,69.85,0,0,1,8-19.79Z"/><path class="cls-2" d="M32.46,263.44a13.7,13.7,0,0,1-3.3,6.93h6.77a4.35,4.35,0,0,0,.45-5.8A4.1,4.1,0,0,0,32.46,263.44Z"/><path class="cls-3" d="M23.83,74.57C21.22,85.24,18,96.71,13.91,108.79s-8.37,23-12.72,33a6.91,6.91,0,0,0,6.59,3.81A95.85,95.85,0,0,0,22,120,95.7,95.7,0,0,0,27.79,91.1Z"/><path class="cls-4" d="M34.86,197.52c.38,3.45.72,6.94,1,10.46,1.74,19.47,2.41,38.19,2.26,56.06a3.45,3.45,0,0,1-2.83,1.71,3.42,3.42,0,0,1-2.63-1.52q-1.86-8.44-3.64-17-4.8-23-8.87-45.42Z"/><path class="cls-5" d="M46.05,201.4q.23,3,.35,6.17s.15,3.79.14,7.56c0,4.93-2.32,25.09-7.94,52.2a2.5,2.5,0,0,1-2.9,1.45,2.43,2.43,0,0,1-1.62-1.88q-.4-8.81-.73-17.71-.87-23.64-1.21-46.63Z"/><path class="cls-6" d="M16.4,130.11a115.2,115.2,0,0,0-2.16,11.94c-1.74,13.66-.6,24.16.65,35a237.7,237.7,0,0,0,5.57,30.48,32.92,32.92,0,0,0,18.88,1.36,31.81,31.81,0,0,0,9.58-4c.9-5.35,2.09-12.93,3.18-22.06,2.84-23.6,1.86-30.69,1.37-33.66a69.13,69.13,0,0,0-7.54-21.58Z"/><path class="cls-7" d="M23.83,74.57a35.29,35.29,0,0,1,12.4-2.28,36,36,0,0,1,18,4.84q-2,5.33-3.85,11.12c-2.28,7.12-4.1,13.94-5.56,20.38a43.39,43.39,0,0,0,5.28,21.93,35.18,35.18,0,0,1-21.84,8.87l-2.95-3.86-1.68,3.75a19.1,19.1,0,0,1-4.77-1.79,19.33,19.33,0,0,1-4-2.87c.62-3.13,1.17-6.44,1.61-9.93a143.49,143.49,0,0,0,1.14-18.67,11.84,11.84,0,0,1-2.42-2.71,12.49,12.49,0,0,1-1.86-7.69C14.52,93.32,15.76,91,17,88.53Q20.6,81.45,23.83,74.57Z"/><path class="cls-8" d="M52.73,76.32l1.84,1a244.86,244.86,0,0,1,5.8,35.76,245.29,245.29,0,0,1,.65,32.6,9.77,9.77,0,0,1-4.27.46,10,10,0,0,1-3.89-1.33,290,290,0,0,0-3.63-31.45c-1.4-8.21-3.07-15.88-4.88-23,1-2,2.11-4,3.34-6.13C49.36,81.34,51.06,78.72,52.73,76.32Z"/><path class="cls-4" d="M30.24,62.81A31.5,31.5,0,0,1,31,67.34a32.85,32.85,0,0,1-.17,7.16,19.64,19.64,0,0,0,2.69.75,20.44,20.44,0,0,0,9-.24q.59-8.36,1.19-16.71Z"/><path class="cls-5" d="M1.79,141.44a17.64,17.64,0,0,0-1.15,2.78A9,9,0,0,0,0,148.06a8.54,8.54,0,0,0,.65,2.32c.44,1.15,1.15,3.06,1.9,3,.51,0,.82-.94.85-1a3.24,3.24,0,0,0,0-1.62c-.08-.68-.17-1.31-.25-1.88l1.24-1.37a11.66,11.66,0,0,0-.06,1.22c0,1.17,0,2.68.69,3a.86.86,0,0,0,.86-.17c.29-.27.25-.72.25-1.11a14.64,14.64,0,0,1,.6-2.21,29.58,29.58,0,0,1,1.33-3.53,7.34,7.34,0,0,0-1.77-1.78A8.26,8.26,0,0,0,1.79,141.44Z"/><path class="cls-5" d="M26.16,38c-.39,3.49-.77,7-1.14,10.54-.33,3.16-.65,6.29-.95,9.41a21.86,21.86,0,0,0,9.12,8.17A25,25,0,0,0,46,58.34c.2-1.25.37-2.58.47-4a44.67,44.67,0,0,0-.57-11,18.53,18.53,0,0,0-11.4-6.27A17.82,17.82,0,0,0,26.16,38Z"/><path class="cls-9" d="M31,69.55l-3,3.67a4.78,4.78,0,0,0,.85,4,4,4,0,0,0,1.6,1.12l2.92-3.18,2.18,4a13,13,0,0,0,10.19-5.84q-1.41-2.13-2.81-4.26a18.76,18.76,0,0,1-9.35,4.2A5.56,5.56,0,0,1,31,69.55Z"/><path class="cls-1" d="M28.72,38.48a21.42,21.42,0,0,0,1.62,2.38,22.41,22.41,0,0,0,6,5.32A28.92,28.92,0,0,0,43.26,49a93.72,93.72,0,0,0,11.5,2.79c.44-1.75,1.59-7.28-1.36-12.46-3.73-6.54-12.49-9.87-21.5-7.67a7.88,7.88,0,0,0-4.94,2c-.66.64-1.52,1.73-2.22,4.61a24.94,24.94,0,0,0-.34,9.89,49.86,49.86,0,0,1,1.87-4.94A52.16,52.16,0,0,1,28.72,38.48Z"/><path class="cls-2" d="M33.88,265.54a16.78,16.78,0,0,1-.05,2.62,17.17,17.17,0,0,1-1,4.2h5.69c.14-.67.25-1.39.34-2.16a23.48,23.48,0,0,0,0-4.49l-2.33-.63c-.28.82-.57,1.63-.85,2.45-.08-.83-.15-1.67-.23-2.5Z"/><path class="cls-8" d="M45.72,73.31a58.67,58.67,0,0,0-8,10.06c-14.37,22.88-8.41,49.39-6,58.34a35.46,35.46,0,0,0,24.05,2l-7.5-20A42.47,42.47,0,0,1,46.57,116a46.88,46.88,0,0,1,5-26.44l2.76-12.36a28.33,28.33,0,0,0-3.05-1.74A29.8,29.8,0,0,0,45.72,73.31Z"/><path class="cls-8" d="M28.26,72.91a112.38,112.38,0,0,0-7.61,15.41c-1.29,3.21-2.36,6.29-3.25,9.21q.42,5.28.69,10.74c.52,10.53.6,20.61.34,30.19a13.62,13.62,0,0,1-2.05,2A14.1,14.1,0,0,1,13,142.56c.46-2.74,1-6.53,1.54-11.09.41-3.88.78-7.28.85-11.6a91.36,91.36,0,0,0-.85-13.81,28.52,28.52,0,0,1-.86-2.9,30.75,30.75,0,0,1-.85-7.51q1.52-3.23,3.07-6.48Q19.5,81.6,23.2,74.33Z"/><polygon class="cls-10" points="34.95 78.12 33.72 78.71 34.34 83.03 31.96 83.48 31.96 79.23 29.06 82.8 27.88 80.47 30.71 78.12 33.38 75.21 34.95 78.12"/><path class="cls-5" d="M53.24,144.17a9.16,9.16,0,0,1-.76,1.55,14.44,14.44,0,0,0-1.29,2c-.29.71-.06.77-.29,1.78-.42,1.89-1.41,2.68-1,3.23a1,1,0,0,0,.85.3c.63-.09.75-.88,1.48-1.8A5.73,5.73,0,0,1,53.58,150a4.16,4.16,0,0,1,.21,1.81,3.85,3.85,0,0,1-.3,1.1,1.78,1.78,0,0,0-.84.33,1.6,1.6,0,0,0-.56,1.37,6.48,6.48,0,0,0,.46.65c.3.38.45.58.63.63.38.11.93-.31,1.4-1,.41-.13.85-.28,1.31-.47A13.06,13.06,0,0,0,58,153.41a13.24,13.24,0,0,0,2.61-8.34,9.75,9.75,0,0,0-7.35-.9Z"/><path d="M94.82,269.61a10.42,10.42,0,0,1-.95,2.44A10.89,10.89,0,0,1,91.55,275a10.1,10.1,0,0,0,6.76,1.59,9.48,9.48,0,0,0,3.59-1.27l-1.17-5.6Z"/><path d="M67.19,267.81c-.27.88-.53,1.76-.79,2.64-1,.3-2.28.71-3.88,1.14-5.39,1.44-8.38,1.62-8.36,1.94s5.69.78,11.8.26a67.44,67.44,0,0,0,7.91-1.14l.12-6.22Z"/><path class="cls-11" d="M72.34,137.25q-1.84,22.69-3.17,46.3c-1.67,29.87-2.56,58.8-2.82,86.71a8.91,8.91,0,0,0,7.87.16q9.12-61.16,18.25-122.31L90.64,138Z"/><path class="cls-11" d="M113.13,136.88q-.73,15.35-1.76,31c-2.32,35.58-5.59,70-9.61,103.23a7.9,7.9,0,0,1-3.93,1.15A8.08,8.08,0,0,1,93.39,271L87.87,134.31Z"/><path class="cls-12" d="M83.64,102.34a31.79,31.79,0,0,1-6.94,3.19,33.41,33.41,0,0,1-17.35.7c1.29-5.77,2.7-10.48,3.82-13.89C68.55,76,73.08,72,74.69,67.14a5.84,5.84,0,0,1,2.08-3,5,5,0,0,1,2.15-.83q.22,3.87.56,7.84C80.4,82.11,81.84,92.54,83.64,102.34Z"/><path class="cls-12" d="M117.52,58.68a318.48,318.48,0,0,1,.87,34,315.65,315.65,0,0,1-5.17,48.59,182.06,182.06,0,0,1-21.35.81,181,181,0,0,1-20-1.52c-.1-8.76,0-17.93.47-27.46a473,473,0,0,1,4.87-49.22,50.47,50.47,0,0,1,40.27-5.19Z"/><path class="cls-13" d="M105.15,36.17c.63-.55,1.25-1.12,1.88-1.69,1.54-1.41,3-2.82,4.42-4.22l-4.28-7.81c.11-.5.23-1,.34-1.51l-5.44-6c-3-.92-6.2-2-9.56-3.44-2.44-1-4.73-2-6.85-3.1A20.59,20.59,0,0,0,83,11.15a21.28,21.28,0,0,0-4,7.9l1,1.83a26,26,0,0,1-.7,4.29,26.34,26.34,0,0,1-2,5.48,11,11,0,0,0,5.28,6Z"/><path class="cls-14" d="M102.79,43.24c.08,1.2.21,2.45.39,3.74A52.81,52.81,0,0,0,106,58.17L93.8,64.86,88.46,62a36.3,36.3,0,0,0,.39-6.22,36.94,36.94,0,0,0-1.09-8.18Z"/><path class="cls-15" d="M105,43.48a21.88,21.88,0,0,1-10.7,8.71,20.15,20.15,0,0,1-7.11-3.3,20.54,20.54,0,0,1-4.15-4q-.66-11.59-1.31-23.19a16.77,16.77,0,0,1,6-3.67c8.19-2.86,15.73,2,16.88,2.73Q104.84,32.1,105,43.48Z"/><path class="cls-15" d="M104.22,36.37a3.06,3.06,0,0,1,5.65-1.45c1.15,1.81-.39,5-2.69,5.8a4.25,4.25,0,0,1-3-.16Z"/><path class="cls-15" d="M84.57,37.26a3.07,3.07,0,0,0-5.73-1.14c-1,1.88.67,5,3,5.65a4.3,4.3,0,0,0,3-.33Z"/><path class="cls-13" d="M81.11,26.24a27,27,0,0,0,4.51-5.93A33.59,33.59,0,0,1,92,21.67a34.86,34.86,0,0,1,14.33,9l-.39-10.33A19.66,19.66,0,0,0,95.9,16a20.42,20.42,0,0,0-15,4.51Z"/><path class="cls-8" d="M92,65.37,89.4,62.92l1.32-2.46,3.34.7,4.58-.79c.52.71,1,1.43,1.57,2.14L96.37,65,95,105.92l-8.68,8.89-4.55-9.75Q86.84,85.22,92,65.37Z"/><path class="cls-16" d="M88.7,54.89l4,4.51L90,66.62l-4.35-6.45Z"/><path class="cls-16" d="M96.18,59.4q1.13,3.8,2.26,7.57l9.85-9.62L104.54,53Z"/><path class="cls-17" d="M89.61,101.37a32,32,0,0,0,23.74,13.32q2.72-7.69,5.42-15.41Z"/><path class="cls-12" d="M69.83,91c1.58.27,3.25.61,5,1,1,.26,2.06.54,3,.83q2,1.85,4.27,3.75c1.8,1.49,3.57,2.86,5.27,4.09a27.11,27.11,0,0,1-8.33,4.58A27.54,27.54,0,0,1,66,106.36a17.28,17.28,0,0,1,.94-11A16.27,16.27,0,0,1,69.83,91Z"/><path class="cls-15" d="M69,90.54a8.16,8.16,0,0,1,6-5.83A8.26,8.26,0,0,1,84,89.18l-6.56,4.48Z"/><path class="cls-12" d="M116,58.3q-2.11,9-4.58,18.32-2.34,8.85-4.79,17.29a70,70,0,0,1-13.43-3A70.3,70.3,0,0,1,81.7,86.06a6.58,6.58,0,0,0-3.89,2.4A6.78,6.78,0,0,0,76.7,94a61.67,61.67,0,0,0,12.22,9.16A62.22,62.22,0,0,0,113.45,111a63.15,63.15,0,0,0,9.79-20c1.64-5.8,6.47-22.89-1.67-30A12.41,12.41,0,0,0,116,58.3Z"/><path class="cls-15" d="M96.28,92.2c-.25-2,3.94-4.1,5.62-4.79a13.84,13.84,0,0,1,7.08-.83c1.42,3,1.56,6.28,0,8.12C105.79,98.48,96.63,95,96.28,92.2Z"/><path class="cls-17" d="M108.36,86.16a20.36,20.36,0,0,1,.2-5.83,21.49,21.49,0,0,1,4.79-10Z"/><path class="cls-18" d="M229.13,33.14A15.25,15.25,0,0,1,234.59,43c-.62,2.11-1.34,4.3-2.18,6.56a102.43,102.43,0,0,1-5.76,12.71A29.15,29.15,0,0,1,229,66.32a29.55,29.55,0,0,1,2.77,10.17,8.54,8.54,0,0,1,5.7,3.57,8.21,8.21,0,0,1,.87,5.82c-1.44,7.5-12.72,12.35-21.76,13.41a26.37,26.37,0,0,1-9.13-.5c-9.6-2.25-15-9.33-16.69-11.72a27.36,27.36,0,0,1-1.09-5.76A28.16,28.16,0,0,1,190.79,71c-.41-2-.81-4.14-1.19-6.25-.77-4.24-1.42-8.38-2-12.42a52.52,52.52,0,0,1,8.15-14.2c5.06-7.88,13.51-12.26,21.65-11.13A20.69,20.69,0,0,1,229.13,33.14Z"/><path class="cls-9" d="M221.55,108.42a26.24,26.24,0,0,0,7.12,3.28c10.23,2.93,19.23-1.42,22-2.92a73.65,73.65,0,0,0-5.3-13.8c-5.87-11.57-13.24-18.3-14.68-22.64a6,6,0,0,0-2.13-3.13,5.07,5.07,0,0,0-2.21-.86c-.16,2.65-.34,5.33-.57,8C224.88,87.68,223.4,98.37,221.55,108.42Z"/><path class="cls-2" d="M219.16,266.52a14.2,14.2,0,0,0,.6,2.37,14.54,14.54,0,0,0,2.85,4.88h-7.07a4.57,4.57,0,0,1-.48-6.07A4.3,4.3,0,0,1,219.16,266.52Z"/><path class="cls-14" d="M216.65,197.61q-.59,5.41-1.08,10.93c-1.82,20.35-2.52,39.92-2.36,58.61a3.26,3.26,0,0,0,5.71.19q1.94-8.82,3.8-17.78,5-24.08,9.27-47.49Z"/><path class="cls-15" d="M205,201.66q-.24,3.17-.37,6.46s-.15,3.95-.14,7.9c0,5.15,2.42,26.23,8.29,54.57a2.62,2.62,0,0,0,3,1.51,2.53,2.53,0,0,0,1.69-2q.42-9.21.76-18.52.93-24.7,1.27-48.75Z"/><path class="cls-6" d="M236,127.14a122.85,122.85,0,0,1,2.26,12.48c1.82,14.28.62,25.26-.69,36.61a246.25,246.25,0,0,1-5.83,31.86A34.39,34.39,0,0,1,212,209.52a33.15,33.15,0,0,1-10-4.17c-1-5.59-2.18-13.51-3.33-23.06-3-24.67-1.95-32.08-1.43-35.18a72,72,0,0,1,7.88-22.56Z"/><path class="cls-9" d="M228.19,69.07a37.14,37.14,0,0,0-13-2.38,37.51,37.51,0,0,0-18.77,5.07q2.09,5.55,4,11.62c2.38,7.44,4.29,14.57,5.81,21.3a45.22,45.22,0,0,1-5.51,22.93,36.64,36.64,0,0,0,22.82,9.27l3.09-4c.59,1.31,1.17,2.62,1.76,3.92a19.7,19.7,0,0,0,5-1.87,19.9,19.9,0,0,0,4.19-3q-1-4.89-1.69-10.37A151.9,151.9,0,0,1,234.74,102a12.23,12.23,0,0,0,2.53-2.83,13,13,0,0,0,1.94-8q-2-3.66-3.87-7.45Q231.56,76.27,228.19,69.07Z"/><path class="cls-13" d="M233,97.59a27.34,27.34,0,0,1-6.1,1.59,28.67,28.67,0,0,1-14.46-1.81Q209.5,90,206.58,82.6q2.25,9.48,4.51,19a25,25,0,0,0,8.49.93A25.7,25.7,0,0,0,233,97.59Z"/><path class="cls-14" d="M221.48,56.78A34.4,34.4,0,0,0,220.92,69a20.94,20.94,0,0,1-12.22.53q-.62-8.73-1.24-17.47Z"/><path class="cls-15" d="M225.75,30.86q.62,5.47,1.19,11c.35,3.3.68,6.57,1,9.83A22.57,22.57,0,0,1,225.45,55a23.45,23.45,0,0,1-7,5.27A26.2,26.2,0,0,1,205,52.11c-.21-1.3-.39-2.7-.49-4.17a46.65,46.65,0,0,1,.59-11.52A19.38,19.38,0,0,1,217,29.86,18.59,18.59,0,0,1,225.75,30.86Z"/><path class="cls-19" d="M220.65,63.83l3.17,3.84a5,5,0,0,1-.89,4.23,4.22,4.22,0,0,1-1.67,1.17l-3.06-3.32L215.93,74A13.64,13.64,0,0,1,209.64,72a13.79,13.79,0,0,1-4.37-4.19l2.94-4.46a20,20,0,0,0,4.33,2.76A19.36,19.36,0,0,0,218,67.78a5.76,5.76,0,0,0,1.87-1.85A5.65,5.65,0,0,0,220.65,63.83Z"/><path class="cls-18" d="M223.07,31.35a22,22,0,0,1-1.69,2.49,23.57,23.57,0,0,1-6.26,5.56,26.4,26.4,0,0,1-7.25,3,27,27,0,0,1-14-.4,17.38,17.38,0,0,1,1.89-9c3.91-7.43,13.62-11.48,24.53-10.33,4.55,0,6.3,1.21,7.05,2.39s.48,2,1.09,4.57a26.36,26.36,0,0,0,1.69,4.86,8.11,8.11,0,0,1-2.88-.3A8.48,8.48,0,0,1,223.07,31.35Z"/><path class="cls-2" d="M217.68,268.71a17.17,17.17,0,0,0,.06,2.74,17.69,17.69,0,0,0,1,4.4H212.8c-.14-.7-.27-1.46-.35-2.26a24.93,24.93,0,0,1-.06-4.7l2.43-.65.9,2.55c.08-.87.15-1.74.23-2.61Z"/><path class="cls-8" d="M216,73.4l1.07.42c-2.27.21-3.34.72-3.54,1.43-.5,1.78,4.4,5.34,5.88,4.37,1-.67.36-3.44.69-3.48s.43,2.1,2.08,3.86c.52.55,1,1,1.48,1,.91-.13,1.56-1.94,1.43-3.33-.24-2.64-3.33-4-3.63-4.16a3.67,3.67,0,0,0-.11-1.66c-.44-1.39-1.87-2.87-3.27-2.62S215.51,71.26,216,73.4Z"/><path class="cls-13" d="M233.73,105.06a41.29,41.29,0,0,1-17.33,13.63,39.85,39.85,0,0,1-10.26,2.65l-3-15Z"/><path class="cls-9" d="M245.92,100.62c-1.62.27-3.33.62-5.13,1.07-1.07.27-2.11.55-3.09.85q-2.07,1.9-4.38,3.84c-2.27,1.91-4.5,3.65-6.66,5.23a25.7,25.7,0,0,0,9.55,1.06,26.07,26.07,0,0,0,13.44-5.13Z"/><path class="cls-15" d="M243.64,100.64c0-.33-.52-3.34-3-4.6s-6.15-.23-8.14,2.83l3.36,5Z"/><path class="cls-9" d="M203.84,69a96.62,96.62,0,0,0,3.36,20,95.32,95.32,0,0,0,4.6,12.91,60.5,60.5,0,0,0,21.75-4.95,6.73,6.73,0,0,1,2.84,2.47,7,7,0,0,1,.88,5A52.81,52.81,0,0,1,205.43,116a82.7,82.7,0,0,1-7.79-15.74c-3.1-8.45-8.14-22.28-2.17-28.41C196.93,70.37,199.43,69,203.84,69Z"/><path class="cls-15" d="M221.35,100.82c0-.74-1.44-1.27-3.72-2.12a22.77,22.77,0,0,0-6.89-1.42c-.63,1.19-2.08,4.24-.89,5.84C212,106,221.38,102.73,221.35,100.82Z"/><path class="cls-20" d="M168.31,97.82a36.14,36.14,0,0,0,7.75,3.57,37.08,37.08,0,0,0,17.76,1.12,63.69,63.69,0,0,0-2.67-15.83c-1.55-5.16-3.45-8.82-7-16-2-4.09-4.85-9.44-8.58-15.57l-5.66-2.3a93.15,93.15,0,0,1,1.5,9.91A97.26,97.26,0,0,1,168.31,97.82Z"/><path class="cls-2" d="M135.45,271.62a8,8,0,0,0,.55,3.28c.42,1.06.78,1.27.73,1.83-.13,1.39-2.65,2.74-4.94,2.56-1.54-.13-3.57-1-4-2.56-.08-.31-.15-.8.55-2.92a33.94,33.94,0,0,1,1.46-3.66Z"/><path class="cls-2" d="M185.56,268.24c.28.91.55,1.83.82,2.74,1,.32,2.37.75,4,1.19,5.61,1.5,8.7,1.68,8.68,2s-5.91.82-12.24.27a70.82,70.82,0,0,1-8.21-1.18l-.12-6.46Z"/><path class="cls-20" d="M180.22,132.74q1.91,23.55,3.29,48,2.6,46.5,2.92,90a9.16,9.16,0,0,1-3.66,1,9.27,9.27,0,0,1-4.51-.86L157.71,146.6l3.51-13.1Z"/><path class="cls-20" d="M138.93,132q-1.77,15.85-3.29,32c-3.48,36.84-5.79,72.66-7.13,107.37a8.21,8.21,0,0,0,3.83,1.83,8.38,8.38,0,0,0,4.75-.55q14.07-69.59,28.15-139.16Z"/><path class="cls-7" d="M129,50.24q1.47,17.15,3.18,34.6,2.5,25.56,5.36,50.42a71.57,71.57,0,0,0,42.87-.73A268.11,268.11,0,0,0,180,106c-.66-9.21-1.51-14.27-3.16-30.62-.89-8.74-1.51-15.87-1.9-20.46a80.4,80.4,0,0,0-32-6.81Z"/><path class="cls-21" d="M148.41,33.53c-.09,1.24-.22,2.54-.41,3.88A54.43,54.43,0,0,1,145,49L157.74,56l5.54-3a38.53,38.53,0,0,1,.72-15Z"/><path class="cls-22" d="M146.07,33.78a22.86,22.86,0,0,0,5.43,5.89,22.31,22.31,0,0,0,5.67,3.15,21.11,21.11,0,0,0,7.39-3.42,21.52,21.52,0,0,0,4.3-4.19q.69-12,1.37-24.07A17.42,17.42,0,0,0,164,7.33c-8.49-3-16.32,2-17.51,2.83Q146.27,22,146.07,33.78Z"/><path class="cls-22" d="M148.39,26.4a3.19,3.19,0,0,0-5.87-1.51c-1.19,1.88.4,5.2,2.79,6a4.47,4.47,0,0,0,3.08-.16Z"/><path class="cls-22" d="M168.28,24.37a2.62,2.62,0,0,1,2.68.85c1.5,1.72.37,5.44-1.83,6.34a3.37,3.37,0,0,1-2.06.1C166.09,27.86,166.8,25,168.28,24.37Z"/><path class="cls-23" d="M159.6,56.55,162.31,54l-1.37-2.56-3.48.73-4.75-.82-1.62,2.22,4,2.61,1.48,42.45,9,9.22,3.57-9.87Q164.38,77.24,159.6,56.55Z"/><path class="cls-20" d="M177.11,130a93.78,93.78,0,0,1-9.8,1,92.58,92.58,0,0,1-16.45-.61l-.42,7.61a61.44,61.44,0,0,0,27.4-1.09Q177.48,133.5,177.11,130Z"/><path class="cls-24" d="M156.34,138.5l.13,4a16.51,16.51,0,0,1-2.68,2.92c-6.21,5.32-14.56,4.39-17.06,4l17-11.63Z"/><path class="cls-20" d="M142.7,48.17a270.64,270.64,0,0,1,11.21,52.69,269.66,269.66,0,0,1,1.36,41,25.21,25.21,0,0,1-19.63,8q-2.12-36-4.24-72-1.58-13.56-3.16-27.12a48.49,48.49,0,0,1,14.46-2.51Z"/><path class="cls-20" d="M166.34,51.57q3,27.84,5.68,56.11,1.51,15.66,2.92,31.2l8.3,8.27c-.33-12.35-1-25.19-2-38.49-1.43-18.92-3.47-36.86-5.91-53.71a28.7,28.7,0,0,0-5.11-2.34A30.82,30.82,0,0,0,166.34,51.57Z"/><path class="cls-24" d="M172,93.31c.43-1.61.94-3.18,1.42-4.78s1-3.15,1.54-4.72l0,.27-1.62-7.86c-.56-2.62-1.12-5.23-1.74-7.84l-1.85-7.81-1-3.9-1-3.92c.55,1.23,1,2.49,1.5,3.75s.91,2.53,1.34,3.81c.86,2.55,1.62,5.14,2.3,7.74s1.28,5.24,1.79,7.88,1,5.3,1.28,8l0,.16-.05.11c-.64,1.53-1.26,3.07-1.92,4.59S172.72,91.81,172,93.31Z"/><path class="cls-1" d="M169.5,24.25a32.4,32.4,0,0,0,2.19-7.68,32,32,0,0,0,.12-9.13,11.72,11.72,0,0,0-2.92-3.17,12,12,0,0,0-5.12-2.19A15,15,0,0,0,152.93.37a14.76,14.76,0,0,0-7.69,4.69,30.61,30.61,0,0,0-.47,15.05,28.52,28.52,0,0,0,1.34,4.26c.49-2.51,1-5,1.46-7.55.41-2.08.81-4.15,1.22-6.21a33,33,0,0,0,5,2.31,33.08,33.08,0,0,0,13.52,1.83,23.07,23.07,0,0,1,.94,2.31A22.64,22.64,0,0,1,169.5,24.25Z"/><path class="cls-19" d="M163,45.62l-4.21,4.69c1,2.49,1.91,5,2.87,7.49l4.5-6.7Z"/><path class="cls-19" d="M155.27,50.31l-2.34,7.85-10.23-10,3.89-4.5Z"/><path class="cls-24" d="M157.34,98.4a29,29,0,0,1-21.63,13.93q-2.29-6.69-4.58-13.36Z"/><path class="cls-20" d="M183.72,85.13c-1.76.29-3.62.67-5.57,1.16-1.17.29-2.3.6-3.37.93C173.3,88.59,171.72,90,170,91.4c-2,1.67-4,3.19-5.89,4.57a34.41,34.41,0,0,0,25.05,6.94A23.69,23.69,0,0,0,187,90,22.7,22.7,0,0,0,183.72,85.13Z"/><path class="cls-22" d="M184.65,84.66a9.11,9.11,0,0,0-6.74-6.5,9.22,9.22,0,0,0-10,5l7.31,5Z"/><path class="cls-20" d="M135.71,49.31c.8,6.39,1.8,13.08,3.06,20,1.2,6.68,2.54,13,4,19.08a78.51,78.51,0,0,0,15-3.29,79.19,79.19,0,0,0,12.77-5.46,7.39,7.39,0,0,1,4.34,2.67,7.58,7.58,0,0,1,1.24,6.19,68.55,68.55,0,0,1-13.63,10.22,69.69,69.69,0,0,1-27.36,8.72,70.45,70.45,0,0,1-10.92-22.3c-1.64-5.8-7.4-26.32,1.86-33.45C129.24,49.23,133.31,49.14,135.71,49.31Z"/><path class="cls-22" d="M154.22,86.52c.28-2.23-4.4-4.58-6.27-5.34a15.36,15.36,0,0,0-7.9-.93c-1.58,3.37-1.74,7,0,9.06C143.61,93.52,153.83,89.64,154.22,86.52Z"/><path class="cls-24" d="M171.14,100.12a20.17,20.17,0,0,0,2.74,2.48,20.39,20.39,0,0,0,6.63,3.27c-.11-1.09-.23-2.18-.35-3.27Z"/><path class="cls-24" d="M176.09,88.45a51.85,51.85,0,0,1-3.89,3.62,52.83,52.83,0,0,1-6.81,4.87,23.44,23.44,0,0,0,2.12,1.5,21.86,21.86,0,0,0,4,2c-.35-1.06-.71-2.12-1.06-3.19Q173.27,92.84,176.09,88.45Z"/><path class="cls-24" d="M140.62,71.82a45.23,45.23,0,0,0-6.72-12.38l6.81,19.19Z"/></g></g></svg>